<?xml version="1.0" encoding="UTF-8"?>
<svg width="512" height="512" viewBox="0 0 512 512" fill="none" xmlns="http://www.w3.org/2000/svg">
    <!-- Background Circle -->
    <circle cx="256" cy="256" r="256" fill="#4CAF50"/>
    
    <!-- Leaf Design -->
    <path d="M256 96C256 96 320 160 320 256C320 352 256 416 256 416C256 416 192 352 192 256C192 160 256 96 256 96Z" fill="#F0FDF4"/>
    
    <!-- Heart Design -->
    <path d="M256 320C256 320 288 288 304 272C320 256 336 256 336 256C336 256 352 256 352 272C352 288 336 304 320 320C304 336 256 352 256 352C256 352 208 336 192 320C176 304 160 288 160 272C160 256 176 256 176 256C176 256 192 256 208 272C224 288 256 320 256 320Z" fill="#F0FDF4"/>
</svg> 